<?xml version="1.0" encoding="UTF-8"?>
<!DOCTYPE svg PUBLIC "-//W3C//DTD SVG 1.1//EN" "http://www.w3.org/Graphics/SVG/1.1/DTD/svg11.dtd">
<svg xmlns="http://www.w3.org/2000/svg" version="1.1" width="577px" height="235px" style="shape-rendering:geometricPrecision; text-rendering:geometricPrecision; image-rendering:optimizeQuality; fill-rule:evenodd; clip-rule:evenodd" xmlns:xlink="http://www.w3.org/1999/xlink">
<g><path style="opacity:1" fill="#fefefe" d="M -0.5,-0.5 C 191.833,-0.5 384.167,-0.5 576.5,-0.5C 576.5,77.8333 576.5,156.167 576.5,234.5C 384.167,234.5 191.833,234.5 -0.5,234.5C -0.5,156.167 -0.5,77.8333 -0.5,-0.5 Z"/></g>
<g><path style="opacity:1" fill="#1085fd" d="M 93.5,53.5 C 110.143,52.2817 125.476,55.9484 139.5,64.5C 141.204,62.9587 143.037,61.6254 145,60.5C 146.477,61.444 147.477,62.7774 148,64.5C 150.761,70.6115 152.595,76.9448 153.5,83.5C 145.826,83.6664 138.159,83.4997 130.5,83C 129.339,80.2793 130.006,77.9459 132.5,76C 106.899,61.064 83.3993,63.8973 62,84.5C 59.5843,87.6628 57.4177,90.9961 55.5,94.5C 61.1278,95.4954 66.7945,95.8288 72.5,95.5C 70.3183,107.483 75.3183,112.317 87.5,110C 92.1667,107.333 96.8333,104.667 101.5,102C 102.5,101.333 103.5,101.333 104.5,102C 114.547,114.592 124.714,127.092 135,139.5C 135.453,146.286 132.453,148.286 126,145.5C 124.466,151.545 121.132,152.878 116,149.5C 115.147,155.302 111.981,156.969 106.5,154.5C 106.11,158.389 103.944,160.389 100,160.5C 97.2657,159.709 96.9324,158.376 99,156.5C 99.6667,154.167 99.6667,151.833 99,149.5C 94.9232,146.212 90.7565,143.045 86.5,140C 82.1667,135.667 77.8333,131.333 73.5,127C 67.6364,126.598 62.9697,128.931 59.5,134C 52.8333,134.667 46.1667,134.667 39.5,134C 38.6667,133.167 37.8333,132.333 37,131.5C 32.8447,97.3131 46.3447,72.8131 77.5,58C 82.9293,56.3865 88.2626,54.8865 93.5,53.5 Z"/></g>
<g><path style="opacity:1" fill="#4888ee" d="M 430.5,165.5 C 434.167,165.5 437.833,165.5 441.5,165.5C 441.5,135.167 441.5,104.833 441.5,74.5C 437.5,74.5 433.5,74.5 429.5,74.5C 433.06,73.4988 437.393,73.1655 442.5,73.5C 442.5,104.5 442.5,135.5 442.5,166.5C 438.298,166.817 434.298,166.483 430.5,165.5 Z"/></g>
<g><path style="opacity:1" fill="#3278ec" d="M 203.5,73.5 C 211.174,73.3336 218.841,73.5003 226.5,74C 230.02,74.504 232.52,76.3374 234,79.5C 234.5,86.8258 234.666,94.1591 234.5,101.5C 230.5,101.5 226.5,101.5 222.5,101.5C 222.5,96.8333 222.5,92.1667 222.5,87.5C 216.824,87.3339 211.157,87.5006 205.5,88C 206.333,88.8333 207.167,89.6667 208,90.5C 208.226,94.8874 208.726,99.2207 209.5,103.5C 217.856,113.355 226.022,123.355 234,133.5C 234.667,142.833 234.667,152.167 234,161.5C 232.833,163.333 231.333,164.833 229.5,166C 220.167,166.667 210.833,166.667 201.5,166C 199.667,164.833 198.167,163.333 197,161.5C 196.5,153.841 196.334,146.174 196.5,138.5C 200.5,138.5 204.5,138.5 208.5,138.5C 208.5,143.167 208.5,147.833 208.5,152.5C 213.167,152.5 217.833,152.5 222.5,152.5C 222.666,147.489 222.499,142.489 222,137.5C 213.667,127.5 205.333,117.5 197,107.5C 196.333,97.8333 196.333,88.1667 197,78.5C 198.805,76.1743 200.972,74.5077 203.5,73.5 Z"/></g>
<g><path style="opacity:1" fill="#2e76ec" d="M 429.5,74.5 C 433.5,74.5 437.5,74.5 441.5,74.5C 441.5,104.833 441.5,135.167 441.5,165.5C 437.833,165.5 434.167,165.5 430.5,165.5C 430.825,135.093 430.492,104.76 429.5,74.5 Z"/></g>
<g><path style="opacity:1" fill="#1386fd" d="M 101.5,82.5 C 104.91,82.4571 108.243,82.9571 111.5,84C 121.167,87.6667 130.833,91.3333 140.5,95C 147.833,95.3333 155.167,95.6667 162.5,96C 163.416,96.3742 164.25,96.8742 165,97.5C 172.967,120.038 169.967,141.038 156,160.5C 135.233,184.996 109.4,192.496 78.5,183C 72.257,180.864 66.5903,177.697 61.5,173.5C 60.2842,176.25 58.2842,177.417 55.5,177C 52.4667,169.733 50.1334,162.233 48.5,154.5C 56.174,154.821 63.8407,155.321 71.5,156C 72.3567,156.689 73.0233,157.522 73.5,158.5C 71.8608,159.916 71.0275,161.583 71,163.5C 83.2364,173.015 97.0698,176.182 112.5,173C 133.831,168.165 147.498,155.331 153.5,134.5C 148.303,134.259 143.303,134.759 138.5,136C 127.5,122.667 116.5,109.333 105.5,96C 104.5,95.3333 103.5,95.3333 102.5,96C 97.6657,99.2516 92.6657,102.252 87.5,105C 84.1667,105.667 80.8333,105.667 77.5,105C 76.1667,103 76.1667,101 77.5,99C 85.1498,92.8262 93.1498,87.3262 101.5,82.5 Z"/></g>
<g><path style="opacity:1" fill="#2f77ec" d="M 393.5,87.5 C 396.833,87.5 400.167,87.5 403.5,87.5C 403.175,94.6866 403.509,101.687 404.5,108.5C 408.167,108.5 411.833,108.5 415.5,108.5C 415.5,112.5 415.5,116.5 415.5,120.5C 410.786,120.173 406.12,120.507 401.5,121.5C 403.446,132.313 404.113,143.313 403.5,154.5C 409.167,154.5 414.833,154.5 420.5,154.5C 420.5,158.5 420.5,162.5 420.5,166.5C 412.747,166.896 405.08,166.396 397.5,165C 395.951,163.786 394.785,162.286 394,160.5C 393.5,136.169 393.333,111.836 393.5,87.5 Z"/></g>
<g><path style="opacity:1" fill="#a5c4f6" d="M 393.5,87.5 C 396.962,86.5184 400.629,86.185 404.5,86.5C 404.5,93.8333 404.5,101.167 404.5,108.5C 403.509,101.687 403.175,94.6866 403.5,87.5C 400.167,87.5 396.833,87.5 393.5,87.5 Z"/></g>
<g><path style="opacity:1" fill="#b0ccf8" d="M 481.5,108.5 C 472.318,108.173 463.318,108.507 454.5,109.5C 453.957,109.44 453.624,109.107 453.5,108.5C 462.992,107.178 472.325,107.178 481.5,108.5 Z"/></g>
<g><path style="opacity:1" fill="#3278ec" d="M 290.5,120.5 C 285.652,119.186 280.652,119.186 275.5,120.5C 275.624,121.107 275.957,121.44 276.5,121.5C 278.459,136.258 279.125,151.258 278.5,166.5C 275.167,166.5 271.833,166.5 268.5,166.5C 268.5,150.833 268.5,135.167 268.5,119.5C 263.125,119.172 257.792,119.505 252.5,120.5C 252.624,121.107 252.957,121.44 253.5,121.5C 254.117,121.611 254.617,121.944 255,122.5C 255.5,137.163 255.667,151.83 255.5,166.5C 252.167,166.5 248.833,166.5 245.5,166.5C 245.667,147.83 245.5,129.164 245,110.5C 244.5,110 244,109.5 243.5,109C 251.833,108.333 260.167,108.333 268.5,109C 270.617,110.731 272.117,112.898 273,115.5C 273.69,112.804 275.19,110.637 277.5,109C 283.5,108.333 289.5,108.333 295.5,109C 297.286,109.785 298.786,110.951 300,112.5C 301.46,130.431 301.96,148.431 301.5,166.5C 297.833,166.5 294.167,166.5 290.5,166.5C 290.5,151.167 290.5,135.833 290.5,120.5 Z"/></g>
<g><path style="opacity:1" fill="#3178ec" d="M 317.5,108.5 C 325.174,108.334 332.841,108.5 340.5,109C 342.378,110.543 343.878,112.376 345,114.5C 345.5,131.83 345.667,149.163 345.5,166.5C 336.161,166.666 326.827,166.5 317.5,166C 316,164.5 314.5,163 313,161.5C 312.333,151.5 312.333,141.5 313,131.5C 314.5,130 316,128.5 317.5,127C 323.157,126.501 328.824,126.334 334.5,126.5C 334.5,124.5 334.5,122.5 334.5,120.5C 327.167,120.5 319.833,120.5 312.5,120.5C 311.475,115.233 313.142,111.233 317.5,108.5 Z"/></g>
<g><path style="opacity:1" fill="#3279ec" d="M 454.5,109.5 C 463.318,108.507 472.318,108.173 481.5,108.5C 484.263,108.744 486.429,110.077 488,112.5C 488.5,130.497 488.667,148.497 488.5,166.5C 485.167,166.5 481.833,166.5 478.5,166.5C 478.5,151.167 478.5,135.833 478.5,120.5C 473.32,119.185 467.986,119.185 462.5,120.5C 462.624,121.107 462.957,121.44 463.5,121.5C 464.15,121.804 464.817,122.137 465.5,122.5C 466.499,137.152 466.833,151.818 466.5,166.5C 462.833,166.5 459.167,166.5 455.5,166.5C 455.83,147.326 455.497,128.326 454.5,109.5 Z"/></g>
<g><path style="opacity:1" fill="#3479ec" d="M 523.5,166.5 C 517.833,166.5 512.167,166.5 506.5,166.5C 506.795,164.265 506.461,162.265 505.5,160.5C 503.968,143.378 501.635,126.378 498.5,109.5C 502.445,108.509 506.445,108.176 510.5,108.5C 511.506,121.219 513.006,133.886 515,146.5C 516.508,133.811 518.008,121.145 519.5,108.5C 523.182,108.335 526.848,108.501 530.5,109C 527.55,128.05 525.216,147.217 523.5,166.5 Z"/></g>
<g><path style="opacity:1" fill="#3078ec" d="M 367.5,166.5 C 364.167,166.5 360.833,166.5 357.5,166.5C 357.83,147.659 357.497,128.993 356.5,110.5C 355.957,110.44 355.624,110.107 355.5,109.5C 363.479,108.335 371.479,108.168 379.5,109C 383.905,111.578 385.572,115.411 384.5,120.5C 377.825,120.334 371.158,120.5 364.5,121C 365.333,121.833 366.167,122.667 367,123.5C 367.5,137.829 367.667,152.163 367.5,166.5 Z"/></g>
<g><path style="opacity:1" fill="#84aef3" d="M 356.5,110.5 C 357.497,128.993 357.83,147.659 357.5,166.5C 360.833,166.5 364.167,166.5 367.5,166.5C 364.038,167.482 360.371,167.815 356.5,167.5C 356.5,148.5 356.5,129.5 356.5,110.5 Z"/></g>
<g><path style="opacity:1" fill="#669af1" d="M 290.5,120.5 C 285.637,120.181 280.97,120.514 276.5,121.5C 275.957,121.44 275.624,121.107 275.5,120.5C 280.652,119.186 285.652,119.186 290.5,120.5 Z"/></g>
<g><path style="opacity:1" fill="#6097f0" d="M 478.5,120.5 C 473.305,120.179 468.305,120.513 463.5,121.5C 462.957,121.44 462.624,121.107 462.5,120.5C 467.986,119.185 473.32,119.185 478.5,120.5 Z"/></g>
<g><path style="opacity:1" fill="#78a6f2" d="M 268.5,166.5 C 267.504,151.342 267.17,136.009 267.5,120.5C 262.637,120.181 257.97,120.514 253.5,121.5C 252.957,121.44 252.624,121.107 252.5,120.5C 257.792,119.505 263.125,119.172 268.5,119.5C 268.5,135.167 268.5,150.833 268.5,166.5 Z"/></g>
<g><path style="opacity:1" fill="#1a88fd" d="M 68.5,131.5 C 73.9064,130.735 75.9064,133.069 74.5,138.5C 79.4948,137.582 81.8281,139.582 81.5,144.5C 85.2407,143.599 87.2407,144.932 87.5,148.5C 93.9297,148.693 95.763,151.693 93,157.5C 89.6707,160.297 86.8373,159.797 84.5,156C 80.1795,156.5 77.8462,154.667 77.5,150.5C 75.8008,150.66 74.1341,150.494 72.5,150C 69.7461,146.886 66.5794,144.386 63,142.5C 62.3333,140.833 62.3333,139.167 63,137.5C 65.0396,135.63 66.8729,133.63 68.5,131.5 Z"/></g>
<g><path style="opacity:1" fill="#afc9f7" d="M 334.5,154.5 C 334.5,149.5 334.5,144.5 334.5,139.5C 329.968,139.182 325.634,139.515 321.5,140.5C 320.711,140.217 320.044,139.717 319.5,139C 324.823,138.501 330.156,138.334 335.5,138.5C 335.821,144.026 335.488,149.36 334.5,154.5 Z"/></g>
<g><path style="opacity:1" fill="#fafbfe" d="M 334.5,154.5 C 330.5,154.5 326.5,154.5 322.5,154.5C 322.774,149.737 322.441,145.07 321.5,140.5C 325.634,139.515 329.968,139.182 334.5,139.5C 334.5,144.5 334.5,149.5 334.5,154.5 Z"/></g>
<g><path style="opacity:1" fill="#c3d6f9" d="M 505.5,160.5 C 506.461,162.265 506.795,164.265 506.5,166.5C 512.167,166.5 517.833,166.5 523.5,166.5C 517.69,167.49 511.69,167.823 505.5,167.5C 505.5,165.167 505.5,162.833 505.5,160.5 Z"/></g>
</svg>
